<svg width="24" height="24" viewBox="0 0 24 24" fill="none" xmlns="http://www.w3.org/2000/svg">
<path d="M14.9999 11.0002V12.9998M17.0001 11.0002H6.99976M15.9998 6.99984H8.00008V3.99984C8.00008 3.73467 8.10542 3.48035 8.29292 3.29285C8.48043 3.10534 8.73474 3 8.99992 3H14.9999C15.2651 3 15.5194 3.10534 15.7069 3.29285C15.8944 3.48035 15.9998 3.73467 15.9998 3.99984V6.99984Z" stroke="#919191" stroke-width="2" stroke-linecap="round" stroke-linejoin="round"/>
<path d="M21 20.0002V8.00017C21 7.73495 20.8947 7.48059 20.7072 7.293C20.5197 7.10542 20.2654 6.99997 20.0002 6.99985H3.99984C3.44784 6.99985 3 7.44769 3 8.00017V20.0002C3 20.5522 3.44784 21 3.99984 21H20.0002C20.5522 21 21 20.5522 21 20.0002Z" stroke="#919191" stroke-width="2" stroke-linecap="round" stroke-linejoin="round"/>
</svg>
