<svg width="24" height="24" viewBox="0 0 24 24" fill="none" xmlns="http://www.w3.org/2000/svg">
<path d="M1 2H23V10.25H21V4H3V16H11.5V18H1V2ZM3 20H11.5V22H3V20Z" fill="#195498"/>
<path d="M19.4999 12V13.376C20.2149 13.56 20.8519 13.936 21.3539 14.448L22.5469 13.759L23.5469 15.491L22.3549 16.179C22.5492 16.8798 22.5492 17.6202 22.3549 18.321L23.5469 19.009L22.5469 20.741L21.3539 20.052C20.8448 20.5712 20.2038 20.9418 19.4999 21.124V22.5H17.4999V21.124C16.7959 20.942 16.1548 20.5714 15.6459 20.052L14.4529 20.741L13.4529 19.009L14.6449 18.321C14.4504 17.6202 14.4504 16.8798 14.6449 16.179L13.4529 15.491L14.4529 13.759L15.6459 14.447C16.155 13.928 16.796 13.5577 17.4999 13.376V12H19.4999ZM16.7489 16.283C16.5847 16.5789 16.4987 16.9117 16.4989 17.25C16.4989 17.6 16.5899 17.93 16.7489 18.217L16.7849 18.28C16.9624 18.5764 17.2137 18.8217 17.5142 18.9921C17.8148 19.1624 18.1544 19.252 18.4999 19.252C18.8454 19.252 19.185 19.1624 19.4855 18.9921C19.7861 18.8217 20.0374 18.5764 20.2149 18.28L20.2509 18.217C20.4099 17.93 20.4999 17.601 20.4999 17.25C20.4999 16.9 20.4099 16.57 20.2509 16.283L20.2149 16.22C20.0374 15.9236 19.7861 15.6783 19.4855 15.5079C19.185 15.3376 18.8454 15.248 18.4999 15.248C18.1544 15.248 17.8148 15.3376 17.5142 15.5079C17.2137 15.6783 16.9624 15.9236 16.7849 16.22L16.7489 16.283Z" fill="#195498"/>
</svg>
